<svg width="88" height="25" viewBox="0 0 88 25" fill="none" xmlns="http://www.w3.org/2000/svg">
<rect x="1" y="1" width="86" height="23" stroke="#28359E" stroke-width="2"/>
<rect x="4" y="4" width="55" height="17" fill="#1ABC9C"/>
<path d="M13.0352 11.3008C13.0039 10.9857 12.8698 10.7409 12.6328 10.5664C12.3958 10.3919 12.0742 10.3047 11.668 10.3047C11.3919 10.3047 11.1589 10.3437 10.9688 10.4219C10.7786 10.4974 10.6328 10.6029 10.5313 10.7383C10.4323 10.8737 10.3828 11.0273 10.3828 11.1992C10.3776 11.3424 10.4076 11.4674 10.4727 11.5742C10.5404 11.681 10.6328 11.7734 10.75 11.8516C10.8672 11.9271 11.0026 11.9935 11.1562 12.0508C11.3099 12.1055 11.474 12.1523 11.6484 12.1914L12.3672 12.3633C12.7161 12.4414 13.0365 12.5456 13.3281 12.6758C13.6198 12.806 13.8724 12.9661 14.0859 13.1562C14.2995 13.3464 14.4648 13.5703 14.582 13.8281C14.7018 14.0859 14.763 14.3815 14.7656 14.7148C14.763 15.2044 14.638 15.6289 14.3906 15.9883C14.1458 16.3451 13.7917 16.6224 13.3281 16.8203C12.8672 17.0156 12.3112 17.1133 11.6602 17.1133C11.0143 17.1133 10.4518 17.0143 9.97266 16.8164C9.49609 16.6185 9.1237 16.3255 8.85547 15.9375C8.58984 15.5469 8.45052 15.0638 8.4375 14.4883H10.0742C10.0924 14.7565 10.1693 14.9805 10.3047 15.1602C10.4427 15.3372 10.6263 15.4714 10.8555 15.5625C11.0872 15.651 11.349 15.6953 11.6406 15.6953C11.9271 15.6953 12.1758 15.6536 12.3867 15.5703C12.6003 15.487 12.7656 15.3711 12.8828 15.2227C13 15.0742 13.0586 14.9036 13.0586 14.7109C13.0586 14.5312 13.0052 14.3802 12.8984 14.2578C12.7943 14.1354 12.6406 14.0312 12.4375 13.9453C12.237 13.8594 11.9909 13.7812 11.6992 13.7109L10.8281 13.4922C10.1536 13.3281 9.62109 13.0716 9.23047 12.7227C8.83984 12.3737 8.64583 11.9036 8.64844 11.3125C8.64583 10.8281 8.77474 10.4049 9.03516 10.043C9.29818 9.68099 9.65885 9.39844 10.1172 9.19531C10.5755 8.99219 11.0964 8.89062 11.6797 8.89062C12.2734 8.89062 12.7917 8.99219 13.2344 9.19531C13.6797 9.39844 14.026 9.68099 14.2734 10.043C14.5208 10.4049 14.6484 10.8242 14.6562 11.3008H13.0352ZM15.9033 17V9H17.5947V12.3008H21.0283V9H22.7158V17H21.0283V13.6953H17.5947V17H15.9033ZM31.4619 13C31.4619 13.8724 31.2965 14.6146 30.9658 15.2266C30.6377 15.8385 30.1898 16.306 29.6221 16.6289C29.057 16.9492 28.4215 17.1094 27.7158 17.1094C27.0049 17.1094 26.3669 16.9479 25.8018 16.625C25.2367 16.3021 24.79 15.8346 24.4619 15.2227C24.1338 14.6107 23.9697 13.8698 23.9697 13C23.9697 12.1276 24.1338 11.3854 24.4619 10.7734C24.79 10.1615 25.2367 9.69531 25.8018 9.375C26.3669 9.05208 27.0049 8.89062 27.7158 8.89062C28.4215 8.89062 29.057 9.05208 29.6221 9.375C30.1898 9.69531 30.6377 10.1615 30.9658 10.7734C31.2965 11.3854 31.4619 12.1276 31.4619 13ZM29.7471 13C29.7471 12.4349 29.6624 11.9583 29.4932 11.5703C29.3265 11.1823 29.0908 10.888 28.7861 10.6875C28.4814 10.487 28.1247 10.3867 27.7158 10.3867C27.307 10.3867 26.9502 10.487 26.6455 10.6875C26.3408 10.888 26.1038 11.1823 25.9346 11.5703C25.7679 11.9583 25.6846 12.4349 25.6846 13C25.6846 13.5651 25.7679 14.0417 25.9346 14.4297C26.1038 14.8177 26.3408 15.112 26.6455 15.3125C26.9502 15.513 27.307 15.6133 27.7158 15.6133C28.1247 15.6133 28.4814 15.513 28.7861 15.3125C29.0908 15.112 29.3265 14.8177 29.4932 14.4297C29.6624 14.0417 29.7471 13.5651 29.7471 13ZM32.7148 17V9H35.8711C36.4753 9 36.9909 9.10807 37.418 9.32422C37.8477 9.53776 38.1745 9.84115 38.3984 10.2344C38.625 10.625 38.7383 11.0846 38.7383 11.6133C38.7383 12.1445 38.6237 12.6016 38.3945 12.9844C38.1654 13.3646 37.8333 13.6562 37.3984 13.8594C36.9661 14.0625 36.4427 14.1641 35.8281 14.1641H33.7148V12.8047H35.5547C35.8776 12.8047 36.1458 12.7604 36.3594 12.6719C36.5729 12.5833 36.7318 12.4505 36.8359 12.2734C36.9427 12.0964 36.9961 11.8763 36.9961 11.6133C36.9961 11.3477 36.9427 11.1237 36.8359 10.9414C36.7318 10.7591 36.5716 10.6211 36.3555 10.5273C36.1419 10.431 35.8724 10.3828 35.5469 10.3828H34.4063V17H32.7148ZM37.0352 13.3594L39.0234 17H37.1563L35.2109 13.3594H37.0352ZM39.6289 10.3945V9H46.1992V10.3945H43.75V17H42.0781V10.3945H39.6289ZM46.8125 9H48.707L50.5313 12.4453H50.6094L52.4336 9H54.3281L51.4102 14.1719V17H49.7305V14.1719L46.8125 9Z" fill="white"/>
<path d="M67.6367 9H69.3281V14.1953C69.3281 14.7786 69.1888 15.2891 68.9102 15.7266C68.6341 16.1641 68.2474 16.5052 67.75 16.75C67.2526 16.9922 66.6732 17.1133 66.0117 17.1133C65.3477 17.1133 64.7669 16.9922 64.2695 16.75C63.7721 16.5052 63.3854 16.1641 63.1094 15.7266C62.8333 15.2891 62.6953 14.7786 62.6953 14.1953V9H64.3867V14.0508C64.3867 14.3555 64.4531 14.6263 64.5859 14.8633C64.7214 15.1003 64.9115 15.2865 65.1562 15.4219C65.401 15.5573 65.6862 15.625 66.0117 15.625C66.3398 15.625 66.625 15.5573 66.8672 15.4219C67.112 15.2865 67.3008 15.1003 67.4336 14.8633C67.569 14.6263 67.6367 14.3555 67.6367 14.0508V9ZM70.7197 17V9H73.876C74.4801 9 74.9958 9.10807 75.4229 9.32422C75.8525 9.53776 76.1794 9.84115 76.4033 10.2344C76.6299 10.625 76.7432 11.0846 76.7432 11.6133C76.7432 12.1445 76.6286 12.6016 76.3994 12.9844C76.1702 13.3646 75.8382 13.6562 75.4033 13.8594C74.971 14.0625 74.4476 14.1641 73.833 14.1641H71.7197V12.8047H73.5596C73.8825 12.8047 74.1507 12.7604 74.3643 12.6719C74.5778 12.5833 74.7367 12.4505 74.8408 12.2734C74.9476 12.0964 75.001 11.8763 75.001 11.6133C75.001 11.3477 74.9476 11.1237 74.8408 10.9414C74.7367 10.7591 74.5765 10.6211 74.3604 10.5273C74.1468 10.431 73.8773 10.3828 73.5518 10.3828H72.4111V17H70.7197ZM75.04 13.3594L77.0283 17H75.1611L73.2158 13.3594H75.04ZM77.9385 17V9H79.6299V15.6055H83.0596V17H77.9385Z" fill="#1ABC9C"/>
</svg>
